<svg xmlns="http://www.w3.org/2000/svg" viewBox="0 0 1170 658.34">
    <defs>
        <style>.cls-1{fill:#ff8ae2;}.cls-2{fill:#9c4668;}.cls-3{fill:#93c2db;}</style>
    </defs>
    <g id="Layer_2" data-name="Layer 2">
        <g id="Layer_1-2" data-name="Layer 1">
            <path class="cls-1" d="M737.73,243.29V114l-13.39,13.42V243.29l23,23.27-23,23.28h13.39L761,266.56Z"/>
            <path class="cls-1" d="M1083.3,103.8h-13.39l23,23.28V274.21l-15.43,15.63h13.39l15.6-15.63V127.08Z"/>
            <path class="cls-1" d="M505.55,41.79H493.18L516.4,65.07V274.21l-15.6,15.63h12.54l15.43-15.63V65.07Z"/>
            <path class="cls-1" d="M292,243.29V113.66l-13.39,13.42V243.29l23.22,23.27-23.22,23.28H292l23.22-23.28Z"/>
            <path class="cls-1" d="M657.06,80.53H643.67V103.8h13.39Z"/>
            <path class="cls-1" d="M643.67,258.75l13.39-13.42V134.73l31-30.93H674.69l-31,30.93Z"/>
            <path class="cls-1"
                  d="M659.27,243.29l7.62,7.81-23.22,23.11-15.42,15.63h13.39l15.42-15.63,23.22-23.11-7.63-7.81Z"/>
            <path class="cls-1"
                  d="M863.82,243.29V65.07L840.61,41.79H827.22l23.21,23.28V243.29l23.05,23.27-23.05,23.28h13.39L887,266.56Z"/>
            <path class="cls-1" d="M887,103.8H873.48l31,30.92V235.47l-24.24,24.3,6.78,6.79,30.85-31.09V134.72Z"/>
            <path class="cls-1" d="M110.67,94.29v56.57l13.39-13.42V53.69L99.65,29.22H86.26l24.41,24.47Z"/>
            <path class="cls-1"
                  d="M183.54,61.84V240.91l16.27,16.31,6.78-6.8-9.66-9.51V53.69l-24.4-24.47H159.14l24.4,24.47Z"/>
            <path class="cls-1" d="M151,145.6,110.67,186v87.5L94.4,289.84h13.39l16.27-16.31V186L151,159Z"/>
            <path class="cls-1" d="M70,62l-24.4,24.3H59.15L76.77,68.64Z"/>
            <path class="cls-1"
                  d="M229.47,240.91H216.08l8.14,8.15L208,265.37l-8.14,8.16-16.27,16.31h13.39l16.27-16.31,8.14-8.16,16.27-16.31Z"/>
            <path class="cls-1" d="M761,103.8H747.39l31,30.92V235.47l-24.24,24.3,6.78,6.79,30.85-31.09V134.72Z"/>
            <path class="cls-1"
                  d="M1024.32,134.55l-53.9,54v54.71l15.43,15.46,6.78-6.63-8.82-8.83V188.58l53.9-54L1007,103.8H993.64Z"/>
            <path class="cls-1"
                  d="M1009.07,235.47l7.79,7.82-23.22,23.27-7.79,7.65-15.43,15.63h13.39l15.43-15.63,7.79-7.65,23.22-23.27-7.8-7.82Z"/>
            <path class="cls-1" d="M970.42,173.12l13.39-13.42V140.5l-13.39-13.42Z"/>
            <path class="cls-1"
                  d="M346.07,251.1V134.72L315.23,103.8H301.84l30.84,30.92V251.1l15.43,15.46-23.05,23.28h13.39l23-23.28Z"/>
            <path class="cls-1" d="M425.89,258.75l6.62-6.63-8.65-8.83V140.16l-13.22-13.08h-.17V243.29Z"/>
            <path class="cls-1"
                  d="M462.5,235.47H449.11l7.63,7.82-23.05,23.27-7.8,7.65-15.42,15.63h13.39l15.42-15.63,7.8-7.65,23.05-23.27Z"/>
            <path class="cls-1" d="M433.69,150h13.39l23.05-23.28-23.05-23.28H433.69l23.05,23.28Z"/>
            <path class="cls-1" d="M553,103.8H539.45l23.21,23.28-23.21,23.28H553l23-23.28Z"/>
            <path class="cls-1" d="M1129.56,103.8h-13.38l23.21,23.28-23.21,23.28h13.38l23.22-23.28Z"/>
            <path class="cls-1" d="M553,150.36H539.45l23.21,23.1V274.21l-15.42,15.63h13.39l15.42-15.63V173.46Z"/>
            <path class="cls-2"
                  d="M674.69,103.8h-31V80.53l-54.06,54.19h23.22V274.21l15.42,15.63,15.42-15.63,23.22-23.11-7.62-7.81-15.6,15.46v-124Z"/>
            <path class="cls-2"
                  d="M850.44,127.08v-62L827.22,41.79,804,65.07l15.42,15.46V258.75l31,31.09,23-23.28-23-23.27Z"/>
            <path class="cls-2" d="M850.44,127.08l23,23.28v116.2l31-31.09V134.72l-31-30.92Z"/>
            <path class="cls-2"
                  d="M199.81,257.22l-16.27-16.31V53.69l-24.4-24.47L134.9,53.69,151,69.83v40.6l-40.33,40.43V53.69L86.26,29.22h-.17L37.29,78l8.3,8.33L70,62l8.14,8.16V273.53L94.4,289.84l16.27-16.31V186L151,145.6V257.22l32.54,32.62,16.27-16.31,8.14-8.16,16.27-16.31-8.14-8.15Z"/>
            <path class="cls-2" d="M724.34,127.08l-31,30.92V258.75l31,31.09,23-23.28-23-23.27Z"/>
            <path class="cls-2" d="M724.34,127.08l23,23.28v116.2l31-31.09V134.72l-31-30.92Z"/>
            <path class="cls-2"
                  d="M1024.32,134.55,993.64,103.8l-23.22,23.28L993.47,150l-23.05,23.1v-46l-31,30.92V258.75l31,31.09,15.43-15.63,7.79-7.65,23.22-23.27-7.79-7.82-23.22,23.28-15.43-15.46V188.58Z"/>
            <path class="cls-2" d="M278.62,127.08l-31,30.92V258.75l31,31.09,23.22-23.28-23.22-23.27Z"/>
            <path class="cls-2"
                  d="M332.68,134.72,301.84,103.8l-23.22,23.28,23.22,23.28v116.2l23.22,23.28,23.05-23.28L332.68,251.1Z"/>
            <path class="cls-2"
                  d="M425.9,258.75l-15.43-15.46V127.08l-31,30.92V258.75l31,31.09,15.43-15.63,7.79-7.65,23.05-23.27-7.63-7.82Z"/>
            <path class="cls-2" d="M433.77,103.54l-23.28,23.28,23.28,23.28L457,126.82Z"/>
            <path class="cls-2" d="M539.65,103.72,516.38,127l23.27,23.27L562.93,127Z"/>
            <path class="cls-2" d="M531.82,189.09v85.12l15.42,15.63,15.42-15.63V173.46l-23.21-23.1-23.05,23.1Z"/>
            <path class="cls-2"
                  d="M516.4,103.8V65.07L493.18,41.79,470,65.07l15.42,15.46V274.21l15.42,15.63,15.6-15.63V103.8Z"/>
            <path class="cls-2" d="M1116.37,103.71,1093.1,127l23.27,23.27L1139.65,127Z"/>
            <path class="cls-2" d="M1046.69,127.08l15.42,15.46V274.21l15.42,15.63L1093,274.21V127.08l-23-23.28Z"/>
            <path class="cls-2"
                  d="M711.63,44V34.83h3.56A5.73,5.73,0,0,1,721,40.6v25a9,9,0,0,0-6.11,8.66,9.59,9.59,0,0,0,2.55,6.46A9,9,0,0,0,724,83.42a9.13,9.13,0,0,0,9.15-9.18,9.58,9.58,0,0,0-5.59-8.49V40.6A12.76,12.76,0,0,0,715,28h-3.56V18.86l-12.37,12.4Zm12.54,26.17a4.89,4.89,0,0,1,3.06,1.19,4.43,4.43,0,0,1,1.18,2.88,4.14,4.14,0,0,1-1.18,2.89,4,4,0,0,1-2.89,1.19,4.2,4.2,0,0,1-4.23-4.25A3.87,3.87,0,0,1,724.17,70.17Z"/>
            <path class="cls-2"
                  d="M697.23,74.41a9.56,9.56,0,0,0-5.59-8.49V40.09a9.1,9.1,0,1,0-10.17-2,10.29,10.29,0,0,0,3.39,2.2V65.75a9,9,0,0,0-6.1,8.66,9.58,9.58,0,0,0,2.54,6.46,9,9,0,0,0,6.61,2.72A9.27,9.27,0,0,0,697.23,74.41Zm-9.15-38.56a4.06,4.06,0,0,1-2.88-1.19A4,4,0,0,1,684,31.77a4.2,4.2,0,0,1,4.24-4.25,4.88,4.88,0,0,1,3,1.19,4.48,4.48,0,0,1,1.18,2.89A4.46,4.46,0,0,1,688.08,35.85Zm0,42.64a4.2,4.2,0,0,1-4.24-4.25A4.06,4.06,0,0,1,685,71.36a3.94,3.94,0,0,1,2.88-1.19A4.88,4.88,0,0,1,691,71.36a4.38,4.38,0,0,1,1.18,2.88A4,4,0,0,1,688.08,78.49Z"/>
            <path class="cls-2"
                  d="M936,116.72a9.16,9.16,0,0,0,.68-12.92,10.67,10.67,0,0,0-3.22-2.37V83.93a38.25,38.25,0,0,0,19.83,13.59,9,9,0,0,0,8.3,7.13,8.91,8.91,0,0,0,6.61-2.37,9.16,9.16,0,0,0,.68-12.92,9.26,9.26,0,0,0-6.27-3,9,9,0,0,0-6.1,1.86l-.51.51a6.84,6.84,0,0,0-1.69,2.21A32.92,32.92,0,0,1,937,77.13a9.17,9.17,0,0,0-12.37-13.42l-.51.51a9.15,9.15,0,0,0-.68,12.91A8.24,8.24,0,0,0,927,79.51v21.75a6.55,6.55,0,0,0-2.37,1.36l-.51.5a9.26,9.26,0,0,0-3,6.29A9,9,0,0,0,936,116.72Zm23.39-24.47a3.94,3.94,0,0,1,3.05-1,3.61,3.61,0,0,1,2.88,1.36,4.27,4.27,0,0,1-.34,6,.59.59,0,0,1-.34.17,4,4,0,0,1-2.71.85,3.63,3.63,0,0,1-2.88-1.36,4,4,0,0,1-1-3.06A4.19,4.19,0,0,1,959.41,92.25ZM927.38,68A4.2,4.2,0,0,1,933,74.24l-.17.17a4.16,4.16,0,0,1-5.59-.51A4.09,4.09,0,0,1,927.38,68Zm-1.53,41.62a3.63,3.63,0,0,1,1.36-2.89A4.21,4.21,0,0,1,932.8,113l-.17.17a4.16,4.16,0,0,1-5.59-.51A3.73,3.73,0,0,1,925.85,109.58Z"/>
            <path class="cls-2" d="M274,22.6a5.23,5.23,0,0,1,.51-2.21h-12.2v5.26h12.2A4.77,4.77,0,0,1,274,22.6Z"/>
            <path class="cls-2" d="M291,23.61a5.23,5.23,0,0,1-.51,2.21h12.2V20.56h-12A15.23,15.23,0,0,1,291,23.61Z"/>
            <path class="cls-2"
                  d="M293.53,23.11v.68a11,11,0,0,1-11.69,10.36,11.17,11.17,0,0,1-10.51-11.72,10.73,10.73,0,0,1,3.73-7.65,10.66,10.66,0,0,1,8-2.72A10.79,10.79,0,0,1,293.53,23.11Zm-16.94,0a6.06,6.06,0,0,0,5.59,5.94,5.73,5.73,0,0,0,4.24-1.53,6.33,6.33,0,0,0,2-4.07A6,6,0,0,0,283,17.16l.17-2.55L283,17.16a5.72,5.72,0,0,0-4.24,1.53,6.24,6.24,0,0,0-2,4.08C276.59,22.77,276.59,22.94,276.59,23.11Z"/>
            <path class="cls-2"
                  d="M1031.1,301.9a5.23,5.23,0,0,1,.51-2.21H1019.4V305h12.21A8.89,8.89,0,0,1,1031.1,301.9Z"/>
            <path class="cls-2" d="M1048.05,302.92a5.23,5.23,0,0,1-.51,2.21h12.2v-5.27h-12A6,6,0,0,1,1048.05,302.92Z"/>
            <path class="cls-2"
                  d="M1050.76,302.41v.68a10.69,10.69,0,0,1-3.73,7.64,11.4,11.4,0,0,1-8,2.72,11.16,11.16,0,0,1-10.5-11.72,11,11,0,0,1,11.69-10.36A11,11,0,0,1,1050.76,302.41Zm-17,0a6.07,6.07,0,0,0,5.59,5.95,5.72,5.72,0,0,0,4.24-1.53,6.28,6.28,0,0,0,2-4.08,6,6,0,0,0-5.42-6.29l.17-2.54-.17,2.54A5.72,5.72,0,0,0,1036,298a6.33,6.33,0,0,0-2,4.08C1033.81,302.24,1033.81,302.24,1033.81,302.41Z"/>
            <path class="cls-2" d="M142.7,319.57a5.23,5.23,0,0,1,.51-2.21H131v5.27h12.2A4.72,4.72,0,0,1,142.7,319.57Z"/>
            <path class="cls-2"
                  d="M159.65,320.59a5.23,5.23,0,0,1-.51,2.21h12.2v-5.27h-12A15.25,15.25,0,0,1,159.65,320.59Z"/>
            <path class="cls-2"
                  d="M162.19,320.08v.68a11,11,0,0,1-11.7,10.36A11.16,11.16,0,0,1,140,319.4a10.69,10.69,0,0,1,3.73-7.65,11.41,11.41,0,0,1,8-2.71A10.91,10.91,0,0,1,162.19,320.08Zm-16.95,0a6.07,6.07,0,0,0,5.59,5.95,5.72,5.72,0,0,0,4.24-1.53,6.24,6.24,0,0,0,2-4.08,6,6,0,0,0-5.42-6.29l.17-2.72-.17,2.72a5.69,5.69,0,0,0-4.23,1.53,6.3,6.3,0,0,0-2,4.08C145.24,319.91,145.24,319.91,145.24,320.08Z"/>
            <path class="cls-2"
                  d="M576.22,74.75a5.23,5.23,0,0,1,.51-2.21h-12.2v5.27h12.2A9.63,9.63,0,0,1,576.22,74.75Z"/>
            <path class="cls-2"
                  d="M593.17,75.77a5.23,5.23,0,0,1-.51,2.21h12.2V72.54h-12A6.79,6.79,0,0,1,593.17,75.77Z"/>
            <path class="cls-2"
                  d="M595.88,75.26v.68a11,11,0,0,1-11.69,10.37,11.18,11.18,0,0,1-10.51-11.73,11,11,0,0,1,11.69-10.36A10.91,10.91,0,0,1,595.88,75.26Zm-17,0a6.07,6.07,0,0,0,5.6,5.95,5.69,5.69,0,0,0,4.23-1.53,6.3,6.3,0,0,0,2-4.08,6,6,0,0,0-5.43-6.28l.17-2.55-.17,2.55a5.69,5.69,0,0,0-4.23,1.53,6.27,6.27,0,0,0-2,4.07C578.93,74.92,578.93,75.09,578.93,75.26Z"/>
            <path class="cls-2"
                  d="M407.25,76.11a9,9,0,0,0-12.71-2.55A9.18,9.18,0,0,0,392,86.31a7.7,7.7,0,0,0,4.24,3v6.46c0,1.87-1.53,6.12-6.1,6.12H373.53V85.63a7.33,7.33,0,0,0,3.22-2.38A9.13,9.13,0,1,0,363.19,71a9.61,9.61,0,0,0-2.37,6.62,8.32,8.32,0,0,0,3.05,6.29l.51.51a10.54,10.54,0,0,0,2.37,1.36v21.74a10.09,10.09,0,0,0-3.56,2.38,9.15,9.15,0,0,0,.68,12.91l.51.51a9.16,9.16,0,0,0,12.37-1.19,9.31,9.31,0,0,0,0-12.23l-1.19-1.19H390c8.81,0,12.71-7.47,12.71-12.57V89.87a8.11,8.11,0,0,0,1.69-.85l.51-.51a9.6,9.6,0,0,0,3.39-5.43A7.74,7.74,0,0,0,407.25,76.11ZM365.9,77.3a4.75,4.75,0,0,1,1-3.06,4,4,0,0,1,5.59-.51.17.17,0,0,1,.17.17,4.29,4.29,0,0,1,.34,5.95,4.24,4.24,0,0,1-5.93.34A4.82,4.82,0,0,1,365.9,77.3Zm7.46,41.29a4.21,4.21,0,0,1-6.27-5.61,4,4,0,0,1,5.59-.51.17.17,0,0,1,.17.17A4.15,4.15,0,0,1,373.36,118.59Zm30.33-36.53a4.21,4.21,0,0,1-1.86,2.72,4.33,4.33,0,0,1-6.61-4.42A3.32,3.32,0,0,1,396.74,78c.18,0,.18-.17.34-.17A4.28,4.28,0,0,1,402.85,79,3.35,3.35,0,0,1,403.69,82.06Z"/>
            <path class="cls-1" d="M95.75,64.39H92.53V258.92h3.22Z"/>
            <path class="cls-1" d="M169.65,64.39h-3.22V245.5h3.22Z"/>
            <path class="cls-1" d="M500.8,73.39h-3.22v193h3.22Z"/>
            <path class="cls-1" d="M835.35,75.6h-3.22V246.51h3.22Z"/>
            <path class="cls-1" d="M318.62,143.22H315.4V254.33h3.22Z"/>
            <path class="cls-1" d="M629.44,143.22h-3.22V254.33h3.22Z"/>
            <path class="cls-1" d="M1078,137.78h-3.22V259.6H1078Z"/>
            <path class="cls-1" d="M763.66,141.18h-3.22v91.06h3.22Z"/>
            <path class="cls-1" d="M888.57,143.22h-3.22v91.06h3.22Z"/>
            <path class="cls-1" d="M954.49,162.93h-3.22V254h3.22Z"/>
            <path class="cls-1" d="M711,161.91h-3.22V253H711Z"/>
            <path class="cls-1" d="M396.41,159.53h-3.22v92.93h3.22Z"/>
            <path class="cls-1" d="M264.21,161.57H261v90h3.22Z"/>
            <path class="cls-1" d="M547.75,179.75h-3.22v90h3.22Z"/>
            <path class="cls-1" d="M95.76,184.33l-2.55-2.54,73.56-73.91,2.54,2.72Z"/>
            <path class="cls-1"
                  d="M1053.3,238a19.55,19.55,0,0,0,8.81,10.7V223.41C1054,231.9,1053.3,237.85,1053.3,238Z"/>
            <path class="cls-1" d="M598.26,249.4a6.36,6.36,0,0,1-.68-1.7A4.7,4.7,0,0,0,598.26,249.4Z"/>
            <path class="cls-1" d="M612.66,218.14c-18.3,14.44-14.41,31.26-14.41,31.26,2.89,6.12,9,9.69,14.58,11.73Z"/>
            <path class="cls-2"
                  d="M346.07,189.77v36.7c3.9-3.57,8.14-8.33,10.17-13.59C356.75,210.67,358.1,200.13,346.07,189.77Z"/>
            <path class="cls-3"
                  d="M234.56,341.32s11.86,5.43,9,36.35c-1.36,13.59,5.93,26.17,5.93,26.17s-21.86-5.27-24.91-21.75C222.18,369.69,232.69,357.29,234.56,341.32Z"/>
            <path class="cls-3"
                  d="M212.69,66.26s25.43-19.71,13.56-54.88c0,0-14.57,5.1-12,20.39C216.93,48.76,217.1,59.29,212.69,66.26Z"/>
            <path class="cls-3"
                  d="M1045.33,205.23S1034,171.08,1067,145.6c0,0,9.32,12.91-1.53,26.5S1045.5,196.06,1045.33,205.23Z"/>
            <path class="cls-3"
                  d="M592.32,202.51s-12.2-31.94,11.19-45.53c0,0,2.71,6,1.52,15.8C603.68,183.14,596.9,184.67,592.32,202.51Z"/>
            <path class="cls-3" d="M409.8,69.83s8.3-21.92,28-16C437.76,53.69,432.51,73.9,409.8,69.83Z"/>
            <path class="cls-3" d="M386.58,63.37s-15.09-16.14.84-32.28C387.59,31.09,401.32,44,386.58,63.37Z"/>
            <path class="cls-3" d="M356.75,69.83s-22,3.56-29.32-13.26C327.26,56.57,348.11,49.27,356.75,69.83Z"/>
            <path class="cls-3" d="M705.7,328.23s8.31-21.91,28-16C733.67,312.26,728.41,332.48,705.7,328.23Z"/>
            <path class="cls-3" d="M682.48,322s-15.08-16.14.85-32.28C683.33,289.67,697.23,302.58,682.48,322Z"/>
            <path class="cls-3" d="M652.66,328.4s-22,3.57-29.32-13.25C623.17,315,644,307.68,652.66,328.4Z"/>
            <path class="cls-3" d="M931.61,49.44s-8.3-17.67,5.94-31.77C937.38,17.67,949.07,32.62,931.61,49.44Z"/>
            <path class="cls-3" d="M919.24,52s-19.49-1-25.08-20.39C894.16,31.6,912.8,28.54,919.24,52Z"/>
            <path class="cls-3" d="M461.83,620.79s-18.82,9.85-31.7-5.95C430.13,614.84,447.93,603.8,461.83,620.79Z"/>
            <path class="cls-3" d="M470.64,633.19s-.85,21.92-20.34,25.15C450.3,658.17,448.77,637.44,470.64,633.19Z"/>
            <path class="cls-3" d="M717.06,547.91s17.62-8.33,31.69,5.94C748.75,553.68,733.84,565.41,717.06,547.91Z"/>
            <path class="cls-3" d="M714.52,535.5s1-19.53,20.33-25.14C734.68,510.36,737.9,529.05,714.52,535.5Z"/>
            <path class="cls-3" d="M1119.9,301.05s19.49,5.95,18.31,26.67C1138.21,327.55,1116.17,325.35,1119.9,301.05Z"/>
            <path class="cls-3" d="M1123.46,290.52s12.54-15.29,32-3.4C1155.49,287.12,1144.48,302.41,1123.46,290.52Z"/>
            <path class="cls-3" d="M30.68,91.74S21,110.26,0,101.6C0,101.6,8.47,81.21,30.68,91.74Z"/>
            <path class="cls-3" d="M40,98.54s15.08,17,0,32.28C39.83,130.82,23.9,113.83,40,98.54Z"/>
            <path class="cls-3" d="M675.37,24s-19-4.08-21.53-24C653.67,0,672.65-.17,675.37,24Z"/>
            <path class="cls-3" d="M669.77,35.34S657.06,50.12,638.42,43C638.59,43,647.4,26.16,669.77,35.34Z"/>
            <path class="cls-3"
                  d="M991.1,229a47.91,47.91,0,0,0,4.75-12.58c2.2-10.53,3.22-21.06,15.93-21.57C1012,194.87,1012.29,223.75,991.1,229Z"/>
            <path class="cls-3"
                  d="M915.85,372.92s12.21-19.54,33.56-21.75c26.27-2.55,35.08-17.84,40-27,0,0-36.1-.51-50.17,7.3C924.84,339.45,920.77,348.45,915.85,372.92Z"/>
            <path class="cls-3"
                  d="M528.77,268.09c1-11.55,1-40.26-1.87-53-3.73-17-7.11-16.47-9.32-15.63s-1.69,3.23-2.88,4.59c-1.35,1.36-3.39,3.06-6.1-2.38-2.71-5.6-4.74-21.57-9.83-27.18-5.25-5.78-8.64,3.57-11,5.78s-2.72,3.73-9.33-.68-24.57-13.59-32.2-7.65c-7.45,5.95.68,13.42,3,14.95,4.92,3.23,20.68,8.16,21.87,10.88,2,4.92-8.65,5.43-10.68,9s.68,7.31,5.59,8.49,18.14-1.35,23.73,0c5.42,1.36,4.23,3.23,2.37,4.42-1,.68-10.51,6-9,10.54,1.69,5.43,7.12,7.13,20.34,5.94,10-.85,17.45,6.29,19.65,12.06C525.38,254.16,528.77,268.09,528.77,268.09Z"/>
            <path class="cls-1"
                  d="M462,177.88a21.68,21.68,0,0,0-2.37-1.36l-1.86,1.19a21.93,21.93,0,0,0,3.05,1.87c43.05,25.82,60.84,53.17,68.3,72.88v-5.1C520.8,227.66,502.33,202,462,177.88Z"/>
            <path class="cls-3"
                  d="M746.72,194.36S743.83,168,748.24,147c2.71-12.74,11.19-29.56,23.22-43.16,13.56-15.12,18.3-17.66,21.35-17.66,1.36,0,.51,2,0,4.07-1.35,4.93-2.54,8.67-4.07,15.46-2.88,13.76,0,19.2-4.23,26.17-2.37,4.07-16.61,9.34-12.88,14.44,2.2,2.89,13.9-8.84,17.11-4.93,3.23,3.74-3,21.24-11.52,26.5C753,182.64,746.72,194.36,746.72,194.36Z"/>
            <path class="cls-3" d="M841.79,364.59V351.17H765.87v22.77h13.72v14.27H765.53v14.1h28v-14.1h61.69V364.59Z"/>
            <path class="cls-3"
                  d="M512.33,409.27H498.26V376.82H477.08V491.5H490.8V477.4h21.53V436.8h25.59V426.09h20.17V409.27Z"/>
            <path class="cls-3" d="M702.82,460.92H688.75V475h14.07Z"/>
            <path class="cls-3" d="M567.75,464.15H553.68v14.1h14.07Z"/>
            <path class="cls-3" d="M581.81,478.25H567.75v14.1h14.06Z"/>
            <path class="cls-3"
                  d="M674.69,503.39V489.12h14.06V475H676.38V444.27H660.11V475H620.62V488.1H607.41v15.29h67.28Z"/>
            <path class="cls-3" d="M635.37,365.44H621.3v14.1h14.07Z"/>
            <path class="cls-3" d="M649.43,351.17H635.37v14.1h14.06Z"/>
            <path class="cls-3" d="M450.47,366.29h-20V377h20Z"/>
            <path class="cls-3"
                  d="M387.08,382.94H373v-14.1H359v14.1H373V436.8h62.87V409.44H387.08Zm14.24,39.58v14.11H387.26V422.52Z"/>
            <path class="cls-3" d="M756.41,468V456.1H744.55V468Z"/>
            <path class="cls-3" d="M353,328.23H340.31v12.24H353Z"/>
            <path class="cls-3" d="M550.29,36.71V24.31H537.92v12.4Z"/>
            <path class="cls-3" d="M782.11,52.68V40.28H769.74v12.4Z"/>
            <path class="cls-3" d="M1170,224.71v-12.4h-12.37v12.4Z"/>
            <path class="cls-3" d="M742.54,612.83h12.38v-12.4H742.54Z"/>
            <path class="cls-3" d="M535.14,658.05h12.37v-12.4H535.14Z"/>
            <path class="cls-3" d="M799.12,294.1V282.21H787.26V294.1Z"/>
            <path class="cls-3" d="M919.59,313.45V301.56H907.72v11.89Z"/>
            <path class="cls-3" d="M459.92,302.81h11.87V290.92H459.92Z"/>
            <path class="cls-3" d="M441.07,507.77V495.88H429.21v11.89Z"/>
            <path class="cls-2" d="M793.49,388.21v14.1h-18V503.39h21.69V490.14h13.22V388.21Z"/>
            <path class="cls-2"
                  d="M649.44,351.17v14.27H635.37v14.1H607.24v36.53h14.23v6.79H639.1V388.21H686V377h12.37V351.17Z"/>
            <path class="cls-1" d="M471.85,314.77h11.87V302.88H471.85Z"/>
            <path class="cls-2" d="M553.34,363.91V351.17H504.53v-10.7H469.62v36.35h28.64v32.45h14.07V386h14.4V363.91Z"/>
            <path class="cls-2" d="M373,450.9v-68H359v-14.1H373V354.57h14.06V340.64H353V495.58h34.06V450.9Z"/>
            <path class="cls-2" d="M353,495.58H340.31v12.23H353Z"/>
            <path class="cls-2" d="M854.84,351.17H841.62v13.25h13.22Z"/>
            <path class="cls-2" d="M868.06,364.59H854.84v23.62h13.22Z"/>
            <path class="cls-2" d="M868.06,337.92H854.84v13.25h13.22Z"/>
            <path class="cls-2" d="M688.75,489.12H674.69v14.1h14.06Z"/>
            <path class="cls-2" d="M512.33,491.5H490.8v11.89h21.53Z"/>
            <path class="cls-1" d="M12.37,143.28v-12.4H0v12.4Z"/>
            <path class="cls-1" d="M359.2,21.93V9.52H346.83V21.93Z"/>
            <path class="cls-1" d="M1151.52,81.8V69.4h-12.37V81.8Z"/>
            <path class="cls-1" d="M1041,359.75h12.37v-12.4H1041Z"/>
            <path class="cls-1" d="M1053.12,347.8h12.37V335.4h-12.37Z"/>
            <path class="cls-1" d="M290.74,450.42h12.38V438H290.74Z"/>
            <path class="cls-1" d="M427.42,569.31H439.8v-12.4H427.42Z"/>
            <path class="cls-1" d="M595,515.72H607.4v-12.4H595Z"/>
            <path class="cls-1" d="M809.89,326V314.15H798V326Z"/>
            <path class="cls-1" d="M907.56,325.42v-11.9H895.69v11.9Z"/>
            <path class="cls-1" d="M584.53,351.17H553.34v12.74H526.73V386h43.56V371.39h14.24Z"/>
            <path class="cls-1" d="M597.24,339.11H584.53v12.23h12.71Z"/>
            <path class="cls-1" d="M988.56,32.11H975.34V45.36h13.22Z"/>
            <path class="cls-1" d="M823.66,503.39H810.44v13.26h13.22Z"/>
            <path class="cls-1" d="M810.44,490.14H797.22v13.25h13.22Z"/>
            <path class="cls-1"
                  d="M702.82,460.92V434.76H693.5v-11.9h-72v-6.79H607.24v14.1H621.3v14.1h55.08V475h12.37v-14.1Z"/>
            <path class="cls-1" d="M635.37,351.17H621.3v14.1h14.07Z"/>
            <path class="cls-1" d="M621.3,365.44H607.24v14.1H621.3Z"/>
            <path class="cls-1" d="M557.92,426.09h-20V436.8h20Z"/>
            <path class="cls-1" d="M340.31,507.81H327.09v13.25h13.22Z"/>
            <path class="cls-1" d="M401.15,422.52H387.08v14.11h14.07Z"/>
            <path class="cls-1" d="M387.08,436.8H373v14.1h14.06Z"/>
            <path class="cls-1" d="M416.4,351.17v-10.7H387.08v14.1H373v28.37h14.06V377h43.39v-10.7h20.17V351.17Z"/>
            <path class="cls-1" d="M793.66,359.83H779.59v14.11h14.07Z"/>
            <path class="cls-1" d="M765.87,373.94V351.17H719.6v37h31.86v14.1h14.07v-14.1h14.06V373.94Z"/>
            <path class="cls-1" d="M567.75,492.35v-14.1H553.68v-14.1H512.33V477.4H490.8v14.1h21.53v11.89H582v-11Z"/>
            <path class="cls-2" d="M702.82,475H688.75v14.1h14.07Z"/>
            <path class="cls-2" d="M769.57,65.18V52.78H757.2v12.4Z"/>
            <path class="cls-2" d="M58.82,179.63v-12.4H46.44v12.4Z"/>
            <path class="cls-2" d="M387.16,308.61v-12.4H374.79v12.4Z"/>
            <path class="cls-2" d="M248.9,304.75V292.34H236.52v12.41Z"/>
            <path class="cls-2" d="M1157.63,237.21v-12.4h-12.37v12.4Z"/>
            <path class="cls-2" d="M730.26,600.34h12.37v-12.4H730.26Z"/>
            <path class="cls-2" d="M855.31,453h12.37v-12.4H855.31Z"/>
            <path class="cls-1" d="M522.67,645.73H535V633.32H522.67Z"/>
            <path class="cls-2" d="M744.38,479.78V467.89H732.52v11.89Z"/>
            <path class="cls-2" d="M552.66,315.83H539.45v13.25h13.21Z"/>
            <path class="cls-2" d="M429.21,519.73V507.84H417.34v11.89Z"/>
            <path class="cls-2"
                  d="M637.74,608.56l-8.13-8.16L616.05,614h-8.47V583.24l7.28-7.3,2.71-2.72,2.89-2.72,5.59-5.6V542.47l-12-11.89-16.61,16.65,2.88,2.72,8.3-8.33,6.27,6.46v22.25l-17,17-1.35,1.36v27.86h33.05Z"/>
            <path class="cls-1"
                  d="M626.05,556.4v8.5l-5.59,5.6-2.89,2.72-2.71,2.72-7.29,7.3V614h4.58V583.24l7.29-7.3,2.54-2.72,2.88-2.72,5.59-5.6V542.47l-12-11.89H614l12,11.89Z"/>
            <path class="cls-1" d="M634.18,600.4h-4.57l8.13,8.16-8.13,8h4.57l8-8Z"/>
            <path class="cls-1" d="M610.79,544l-2.2-2.38-8.3,8.32h4.4Z"/>
            <path class="cls-3" d="M682.15,579.68v17.84H669.94V579H661.3V553.34H645.71v39.08h8v25.14h37.12V579.68Z"/>
            <path class="cls-1" d="M697.23,553.17V542.64H686v10.7h-3.89v26.34h8.64v25h6.44V592.42h5.42V553.17Z"/>
            <path class="cls-2" d="M689.43,531.09H663v6.45h-9.32v15.8h7.63V579h8.64V553.34H686v-10.7h3.39Z"/>
            <path class="cls-2"
                  d="M519.11,608.56,511,600.4,497.42,614h-8.48V583.24l7.29-7.3,2.71-2.72,2.88-2.72,5.59-5.6V542.47l-12-11.89-16.61,16.65,2.88,2.72,8.31-8.33,6.27,6.46v22.25l-17,17-1.36,1.36v27.86H511Z"/>
            <path class="cls-1"
                  d="M507.41,556.4v8.5l-5.59,5.6-2.88,2.72-2.71,2.72-7.29,7.3V614h4.58V583.24l7.28-7.3,2.55-2.72,2.88-2.72,5.59-5.6V542.47l-12-11.89h-4.41l12,11.89Z"/>
            <path class="cls-1" d="M492.16,544l-2.2-2.38-8.31,8.32h4.41Z"/>
            <path class="cls-1" d="M515.55,600.4H511l8.14,8.16-8.14,8h4.58l8-8Z"/>
            <path class="cls-3" d="M563.51,579.68v17.84h-12.2V579h-8.65V553.34H527.07v39.08h8v25.14h37.11V579.68Z"/>
            <path class="cls-1" d="M578.59,553.17V542.64H567.41v10.7h-3.9v26.34h8.64v25h6.44V592.42H584V553.17Z"/>
            <path class="cls-2" d="M570.8,531.09H544.36v6.45H535v15.8h7.62V579h8.65V553.34h16.1v-10.7h3.39Z"/>
            <path class="cls-1" d="M505.89,369.86A.85.85,0,1,0,505,369,.85.85,0,0,0,505.89,369.86Z"/>
            <path class="cls-1" d="M504,392.11a.85.85,0,1,0-.84-.85A.85.85,0,0,0,504,392.11Z"/>
            <path class="cls-1" d="M507.75,404.18a.85.85,0,1,0-.84-.85A.85.85,0,0,0,507.75,404.18Z"/>
            <path class="cls-1" d="M503.35,381.92a.85.85,0,0,0,0-1.7.85.85,0,1,0,0,1.7Z"/>
            <path class="cls-1" d="M511,361.53a.85.85,0,1,0-.84-.85A.85.85,0,0,0,511,361.53Z"/>
            <path class="cls-1" d="M494.36,352.19a.85.85,0,1,0-.84-.85A.85.85,0,0,0,494.36,352.19Z"/>
            <path class="cls-1" d="M518.43,380.9a.85.85,0,1,0-.85-.85A.85.85,0,0,0,518.43,380.9Z"/>
            <path class="cls-1" d="M530.46,357.29a.85.85,0,0,0,0-1.7.85.85,0,0,0,0,1.7Z"/>
            <path class="cls-1" d="M546.9,360.51a.85.85,0,1,0-.85-.85A.85.85,0,0,0,546.9,360.51Z"/>
            <path class="cls-1" d="M477.08,364.76a.85.85,0,0,0,0-1.7.85.85,0,0,0,0,1.7Z"/>
            <path class="cls-1" d="M490.13,372.24a.85.85,0,1,0-.85-.85A.85.85,0,0,0,490.13,372.24Z"/>
            <path class="cls-1" d="M488.26,361.19a.85.85,0,1,0-.84-.85A.85.85,0,0,0,488.26,361.19Z"/>
            <path class="cls-1" d="M475.89,349.3a.85.85,0,1,0-.85-.85A.85.85,0,0,0,475.89,349.3Z"/>
            <path class="cls-1" d="M517.58,366.8a.85.85,0,1,0-.85-.85A.85.85,0,0,0,517.58,366.8Z"/>
            <path class="cls-1" d="M614.35,394a.85.85,0,1,0-.84-.85A.85.85,0,0,0,614.35,394Z"/>
            <path class="cls-1" d="M661.81,369.18a.85.85,0,1,0-.85-.85A.85.85,0,0,0,661.81,369.18Z"/>
            <path class="cls-1" d="M631,408.25a.85.85,0,1,0-.85-.85A.85.85,0,0,0,631,408.25Z"/>
            <path class="cls-1" d="M624,401a.85.85,0,1,0-.84-.85A.85.85,0,0,0,624,401Z"/>
            <path class="cls-1" d="M632.83,419.3a.85.85,0,1,0-.85-.85A.85.85,0,0,0,632.83,419.3Z"/>
            <path class="cls-1" d="M676.55,378.69a.85.85,0,1,0,0-1.7.85.85,0,0,0,0,1.7Z"/>
            <path class="cls-1" d="M615.2,411.14a.85.85,0,1,0-.84-.85A.85.85,0,0,0,615.2,411.14Z"/>
            <path class="cls-1" d="M661,381.92a.85.85,0,1,0-.85-.85A.85.85,0,0,0,661,381.92Z"/>
            <path class="cls-1" d="M681.47,364.93a.85.85,0,1,0-.85-.85A.85.85,0,0,0,681.47,364.93Z"/>
            <path class="cls-1" d="M689.09,359a.85.85,0,1,0-.84-.84A.84.84,0,0,0,689.09,359Z"/>
            <path class="cls-1" d="M646.55,372.24a.85.85,0,1,0-.84-.85A.85.85,0,0,0,646.55,372.24Z"/>
            <path class="cls-1" d="M620.62,385.49a.85.85,0,1,0-.84-.85A.85.85,0,0,0,620.62,385.49Z"/>
            <path class="cls-1" d="M669.09,360.51a.85.85,0,1,0-.84-.85A.85.85,0,0,0,669.09,360.51Z"/>
            <path class="cls-1" d="M653.67,357.29a.85.85,0,1,0-.84-.85A.85.85,0,0,0,653.67,357.29Z"/>
            <path class="cls-1" d="M631.81,391.77a.85.85,0,1,0-.85-.85A.85.85,0,0,0,631.81,391.77Z"/>
            <path class="cls-1" d="M802.3,457a.85.85,0,1,0-.84-.85A.85.85,0,0,0,802.3,457Z"/>
            <path class="cls-1" d="M801.12,425.75a.85.85,0,0,0,0-1.7.85.85,0,0,0,0,1.7Z"/>
            <path class="cls-1" d="M801.29,402a.85.85,0,1,0-.85-.85A.85.85,0,0,0,801.29,402Z"/>
            <path class="cls-1" d="M797.9,440.87a.85.85,0,1,0-.85-.85A.85.85,0,0,0,797.9,440.87Z"/>
            <path class="cls-1" d="M789.93,482a.85.85,0,1,0-.85-.85A.85.85,0,0,0,789.93,482Z"/>
            <path class="cls-1" d="M785.86,495.58a.85.85,0,1,0-.84-.85A.85.85,0,0,0,785.86,495.58Z"/>
            <path class="cls-1" d="M789.93,414.2a.85.85,0,1,0-.85-.85A.85.85,0,0,0,789.93,414.2Z"/>
            <path class="cls-1" d="M803.83,479.61a.85.85,0,1,0-.85-.85A.85.85,0,0,0,803.83,479.61Z"/>
            <path class="cls-1" d="M791,456.5a.85.85,0,1,0-.85-.85A.85.85,0,0,0,791,456.5Z"/>
            <path class="cls-1" d="M783.83,470.77a.85.85,0,1,0-.85-.85A.85.85,0,0,0,783.83,470.77Z"/>
            <path class="cls-1" d="M781.63,428.81a.85.85,0,1,0-.85-.85A.85.85,0,0,0,781.63,428.81Z"/>
            <path class="cls-1" d="M357.77,491.33a.85.85,0,1,0-.85-.85A.85.85,0,0,0,357.77,491.33Z"/>
            <path class="cls-1" d="M383,486.74a.85.85,0,1,0-.85-.84A.85.85,0,0,0,383,486.74Z"/>
            <path class="cls-1" d="M358.61,395.34a.85.85,0,1,0-.84-.85A.85.85,0,0,0,358.61,395.34Z"/>
            <path class="cls-1" d="M366.58,363.4a.85.85,0,1,0-.85-.85A.85.85,0,0,0,366.58,363.4Z"/>
            <path class="cls-1" d="M381,348.28a.85.85,0,1,0-.84-.85A.85.85,0,0,0,381,348.28Z"/>
            <path class="cls-1" d="M361.15,446.65a.85.85,0,1,0-.84-.85A.85.85,0,0,0,361.15,446.65Z"/>
            <path class="cls-1" d="M360.48,480.8a.85.85,0,0,0,0-1.7.85.85,0,1,0,0,1.7Z"/>
            <path class="cls-1" d="M363.7,421a.85.85,0,1,0-.85-.85A.85.85,0,0,0,363.7,421Z"/>
            <path class="cls-1" d="M373.19,473.32a.85.85,0,1,0-.85-.85A.85.85,0,0,0,373.19,473.32Z"/>
            <path class="cls-1" d="M368.27,485.39a.85.85,0,0,0,0-1.7.85.85,0,0,0,0,1.7Z"/>
            <path class="cls-1" d="M372.51,346.92a.85.85,0,1,0-.85-.85A.85.85,0,0,0,372.51,346.92Z"/>
            <path class="cls-1" d="M368.1,454.29a.85.85,0,1,0-.84-.84A.85.85,0,0,0,368.1,454.29Z"/>
            <path class="cls-1" d="M380,460.58a.85.85,0,1,0-.85-.85A.85.85,0,0,0,380,460.58Z"/>
            <path class="cls-1" d="M358.61,349.64a.85.85,0,1,0-.84-.85A.85.85,0,0,0,358.61,349.64Z"/>
            <path class="cls-1" d="M362.17,435.1a.85.85,0,1,0-.85-.85A.85.85,0,0,0,362.17,435.1Z"/>
            <path class="cls-1" d="M657.74,543.66a1,1,0,1,0-1-1A1,1,0,0,0,657.74,543.66Z"/>
            <path class="cls-1" d="M677.4,536a1,1,0,1,0-1-1A1,1,0,0,0,677.4,536Z"/>
            <path class="cls-1" d="M669.77,545.36a1,1,0,1,0-1-1A1,1,0,0,0,669.77,545.36Z"/>
            <path class="cls-1" d="M681.13,548.42a1,1,0,1,0-1-1A1,1,0,0,0,681.13,548.42Z"/>
            <path class="cls-1" d="M666.55,552a1,1,0,1,0-1-1A1,1,0,0,0,666.55,552Z"/>
            <path class="cls-1" d="M665.54,575.77a1,1,0,1,0-1-1A1,1,0,0,0,665.54,575.77Z"/>
            <path class="cls-1" d="M664,563a1,1,0,1,0-1-1A1,1,0,0,0,664,563Z"/>
            <path class="cls-1" d="M539.11,543.66a1,1,0,1,0-1-1A1,1,0,0,0,539.11,543.66Z"/>
            <path class="cls-1" d="M545.38,548.42a1,1,0,1,0-1-1A1,1,0,0,0,545.38,548.42Z"/>
            <path class="cls-1" d="M563.51,537a1,1,0,1,0-1-1A1,1,0,0,0,563.51,537Z"/>
            <path class="cls-1" d="M557.75,546.38a1,1,0,1,0-1-1A1,1,0,0,0,557.75,546.38Z"/>
            <path class="cls-1" d="M546.9,558.44a1,1,0,1,0-1-1A1,1,0,0,0,546.9,558.44Z"/>
            <path class="cls-1" d="M547.92,541.45a1,1,0,1,0-1-1A1,1,0,0,0,547.92,541.45Z"/>
            <path class="cls-1" d="M546.39,572.54a1,1,0,1,0-1-1A1,1,0,0,0,546.39,572.54Z"/>
            <path class="cls-3"
                  d="M1059.74,81.55c0-2.38-4.58-3.4-5.42-4.93-.51-.85,1-1.53,2.2-1.36.85,0,8.13,1.36,13.22,1.36,17.29.51,21.86-3.74,21.69-6.11s-6.78-3.57-7.79-5.1c-.85-1.53.33-3.06,6.27-4.08,6.1-1,16.6-1.53,23.55-4.76s5.43-7-3.39-9.68c-3.22-1.36-1.18-3.4,4.92-8.15s21.18-19.71,16.44-27.53c-4.07-5.77-11.53-2.38-16.78,3.06-4.07,4.08-12,12.4-14.91,12.57-5.26.51-.51-7.47-3.22-10.36s-8.48,2.21-10.85,6.46-4.24,11-6.78,16c-2.71,5.43-5.42,3.39-6.27,1.52-.68-1.86.51-9.51-4.75-10.36-4.57-.68-10,11-14.57,17.67a35.07,35.07,0,0,1-6.27,7c-1.36,1-2,.68-2.37,0-.68-1,0-7.48-4.58-8.84-4.07-1-8,5.78-13.22,12.06-4.24,5.1-10.17,7.82-16.61,9.86-8.81,2.72-22.2,3.4-22.2,3.4s6.61,2.88,12.2,4.58c13.56,4.08,20,6.29,35.25,7.82,11.53,1.19,23.56,2.38,24.24-2Z"/>
            <path class="cls-3"
                  d="M356.24,213.22c7.29-15.46,4.91-34.83-3.22-50.12-8-14.95-18.3-25.66-34.91-33.47-4.07-1.87-15.09-5.1-15.09-5.1s.17,9.35.51,12.06c1.53,11.39,3.22,23.28,10.17,31.09,6.44,7.31,14.75,10.88,23.39,15.63C361,196.74,356.24,213.22,356.24,213.22Z"/>
            <path class="cls-3"
                  d="M232.35,321.1s44.41-2.21,61,30.58c17.8,35,35.25,46.89,35.25,46.89s-36.09,4.93-53.21-15.8C258.11,362,265.74,341.15,232.35,321.1Z"/>
            <path class="cls-3"
                  d="M1053.3,238s-8.64-22.94,2.37-38.06c8.65-12.06,29.15-15,47.46-12.91,12.37,1.36,28.13-6.62,28.13-6.62s0,18.34-20,24.12c-11.18,3.23-21-1.7-36.44,8.67C1054.66,226.64,1053.3,238,1053.3,238Z"/>
            <path class="cls-3"
                  d="M598.25,249.4c-7.28-15.46-4.74-34.66,3.22-50.12,14.58-28,50-33.46,50-33.46s-3.05,22.93-14.07,36c-6.27,7.48-17.28,10.2-24.91,16.31C594.36,232.58,598.25,249.4,598.25,249.4Z"/>
            <path class="cls-3"
                  d="M963.31,282.7c-1.36-1-57.63-21.23-6.95-62.69l34.74-28s1.19,31.09-20.68,51.48C948.73,263.33,963.31,282.7,963.31,282.7Z"/>
            <path class="cls-3"
                  d="M403,282.7c-1.36-1-57.63-21.23-6.95-62.69l34.74-28s1.19,31.09-20.68,51.48C388.61,263.33,403,282.7,403,282.7Z"/>
            <path class="cls-3"
                  d="M902.3,403.5s19.66-30.41,53.21-33c28.14-2.21,63.22,14.1,63.22,14.1s-27.46,22.93-62.2,19.2C931.45,401.12,924.16,392.79,902.3,403.5Z"/>
            <path class="cls-3"
                  d="M216.42,109.75c-4.4,0-4.74,12.23-5.25,23.79-.51,15.29.85,21.91,3.05,36a113.94,113.94,0,0,0,2.88,12.75s2.37-13.26,6.27-21.75c2.88-6.12,6.27-11.72,11.86-15.29C242,141,249.3,138,249,133.88c-.85-4.76-7.29-4.93-8.13-5.78-.51-.51-.85-1.19.34-2.38a39.26,39.26,0,0,1,7.79-5.27c7.12-3.73,19.49-7.47,19.32-12.06-.17-5.44-7.79-5.1-9.49-6.11-1.86-1-3.39-3.91,2.37-6,5.26-1.87,12.21-2.72,16.78-4.59,4.58-1.7,10.34-6.62,8-9.85-2.54-3.23-11,.51-9.83-4.76.68-2.89,9.83-9.68,14.57-13.08,6.1-4.42,10.51-11.55,5.26-16.31C288.79,42,272,54.88,266.42,60.31s-7.8,7.14-8.81,3.91c-1.53-9-5.09-11-9.16-4.59s-6.1,16.82-7.79,22.77-3.56,6.79-4.92,5.77-1.69-8-4.06-8.32c-2.21-.51-7,3.4-9,20.73-.51,4.92-.34,12.4-.34,13.25-.17,1.36-.84,2.72-1.69,2C219.13,114.85,218.79,109.92,216.42,109.75Z"/>
            <path class="cls-3"
                  d="M823.49,235c2.2-.51,2.2-5.26,3.56-6.28.85-.68,1.52.68,1.86,1.86.17.85.51,8.33,1.36,13.26,3.22,17.16,8.13,20.55,10.34,19.87s2-7.47,3.38-8.66,3.06-.34,5.26,5.27c2.2,5.77,4.91,16,9.49,22.08s7.8,3.74,8.64-5.43c.68-3.4,3-1.87,9,3.05s23.39,16.48,30,10.37c4.75-5.1-.17-11.9-6.44-15.8-4.74-3.23-14.4-9.18-15.25-12.07-1.52-5.09,7.12-2,9.32-5.43s-3.9-7.82-8.47-9.18S874,246,868.74,244.65c-5.76-1.53-4.41-4.59-2.71-5.78,1.52-1.19,9.15-1.36,9-6.8-.17-4.58-12.71-7.47-20-10.53a42.86,42.86,0,0,1-8-4.76c-1.19-1-1-1.87-.51-2.38.85-.84,7.12-1.69,7.62-6.45,0-4.08-7.28-6.63-14.23-10.36-5.93-3.06-9.66-8.33-12.88-14.28-4.41-8-7.63-20.55-7.63-20.55a100.51,100.51,0,0,0-2,12.4c-1,14.27-1.87,21.07-.17,36.19C817.9,223.07,819.08,235.3,823.49,235Z"/>
            <path class="cls-1"
                  d="M767.9,121.47c-.17.34-17.8,27.19-21.69,69-.34-3.06-.34-7.31-.51-10.53,5.42-36.7,20.17-59.47,20.34-59.64Z"/>
            <path class="cls-1"
                  d="M300,385.49c-9.66-4.59-13.55-12.57-18-21.92-3.22-6.79-6.95-14.61-13.73-22.08-18.3-19.88-59.82-24.3-60.16-24.3l.34-2.55c1.69.17,42.87,4.59,61.86,25.15,7.11,7.64,10.84,15.63,14.23,22.59,4.24,8.84,7.8,16.48,16.61,20.56Z"/>
            <path class="cls-1"
                  d="M216.93,201.83c-1-8-4.91-48.93,9.15-79.17,16.61-35.33,48.47-58.44,48.81-58.61l1.53,2c-.34.17-31.69,22.93-48,57.76-13.9,29.56-9.84,70-9,77.81Z"/>
            <path class="cls-1"
                  d="M1015.51,74.75a198.42,198.42,0,0,1-46.78-6.11l.68-2.55c7.62,2,46.94,11.38,78.13,1.7,36.6-11.39,63.21-39.42,63.55-39.76l1.86,1.7c-.33.34-27.45,28.71-64.57,40.44C1037.71,73.56,1026.18,74.75,1015.51,74.75Z"/>
            <path class="cls-1"
                  d="M884.5,275.91c-.34-.17-33.39-20.73-52.37-54.71-7.46-13.25-11-29.22-13-43.32-.51-3.4-1-10.37-1-10.37l1.52-8c.85,16.48,4.24,41.62,14.75,60.48,18.64,33.3,51.18,53.69,51.52,53.86Z"/>
            <path class="cls-1"
                  d="M360.31,189.43c-.17-2-.34-4.25-.68-6.29-14.24-22.42-42-41.79-43.39-42.64l-1.35,2C315.06,142.71,347.77,165.31,360.31,189.43Z"/>
            <path class="cls-1"
                  d="M415.39,214.41c-.17.16-10.34,10-20,19.19-11.86,11.22-16.1,22.6-12.88,35.85a35.4,35.4,0,0,0,3.73,3.4c-4.92-14.1-1.53-25.66,11-37.38,9.66-9.17,20-19.2,20-19.2Z"/>
            <path class="cls-1"
                  d="M974,218.31c-.17.17-10.33,10-20,19.2s-14.24,18.35-13.9,28.54a26.05,26.05,0,0,0,2.88,3.23c-1.53-10.87,2.54-20.39,12.88-30.07,9.66-9.17,20-19.2,20-19.2Z"/>
            <path class="cls-1"
                  d="M594.86,219.16a45.14,45.14,0,0,0-.67,6.63c12.2-25.15,41.69-42.14,42-42.31l-1.19-2.2a129.41,129.41,0,0,0-21.69,16.14A95.16,95.16,0,0,0,594.86,219.16Z"/>
            <path class="cls-1"
                  d="M1071.26,199.79c11.7-5.77,30.17-3.73,30.34-3.73l.34-2.55c-.85-.17-19.49-2.21-31.86,3.91-8.14,3.9-14.75,10.19-20,18.68a27.29,27.29,0,0,0,0,5.27C1055.33,211.52,1062.45,204.21,1071.26,199.79Z"/>
            <path class="cls-1"
                  d="M889.75,416.41l-2-1.53a72.72,72.72,0,0,1,17.8-15.63A110.7,110.7,0,0,1,927,389.4c23.56-8,58.3-5.27,59.82-5.1l-.16,2.55c-.34,0-35.77-2.89-58.81,5.09a101.72,101.72,0,0,0-21,9.52A75.16,75.16,0,0,0,889.75,416.41Z"/>
        </g>
    </g>
</svg>
